<svg width="28" height="28" viewBox="0 0 28 28" fill="none" xmlns="http://www.w3.org/2000/svg">
<path fill-rule="evenodd" clip-rule="evenodd" d="M21.9998 0.666504H5.99984C3.05432 0.666504 0.666504 3.05432 0.666504 5.99984V26.6665C0.666504 27.0346 0.964984 27.3332 1.33317 27.3332C1.50933 27.3321 1.67761 27.26 1.79984 27.1332L5.79984 23.1332C6.56561 22.3876 7.59792 21.9794 8.6665 21.9998H21.9998C24.9453 21.9998 27.3332 19.612 27.3332 16.6665V5.99984C27.3332 3.05432 24.9453 0.666504 21.9998 0.666504ZM16.6665 14.6665C16.6665 15.0346 16.368 15.3332 15.9998 15.3332H6.6665C6.29832 15.3332 5.99984 15.0346 5.99984 14.6665V13.3332C5.99984 12.965 6.29832 12.6665 6.6665 12.6665H15.9998C16.368 12.6665 16.6665 12.965 16.6665 13.3332V14.6665ZM21.3332 9.99984C21.7013 9.99984 21.9998 9.70136 21.9998 9.33317V7.99984C21.9998 7.63165 21.7013 7.33317 21.3332 7.33317H6.6665C6.29832 7.33317 5.99984 7.63165 5.99984 7.99984V9.33317C5.99984 9.70136 6.29832 9.99984 6.6665 9.99984H21.3332Z" fill="black"/>
</svg>
