<svg width="20" height="20" viewBox="0 0 20 20" fill="none" xmlns="http://www.w3.org/2000/svg">
<path d="M9.07088 1.42875C9.41462 0.612291 10.5854 0.612292 10.9291 1.42875L12.9579 6.24764C13.1029 6.59184 13.4306 6.82702 13.8067 6.85681L19.0727 7.27388C19.9649 7.34455 20.3267 8.44454 19.6469 9.01981L15.6348 12.4151C15.3482 12.6576 15.223 13.0382 15.3106 13.4007L16.5363 18.4774C16.744 19.3375 15.7969 20.0174 15.033 19.5565L10.5245 16.836C10.2025 16.6416 9.7975 16.6416 9.47548 16.836L4.96699 19.5565C4.20311 20.0174 3.25596 19.3375 3.46363 18.4774L4.68942 13.4007C4.77698 13.0382 4.65182 12.6576 4.36526 12.4151L0.353062 9.01981C-0.326718 8.44454 0.0350679 7.34455 0.927291 7.27388L6.19336 6.85681C6.5695 6.82702 6.89716 6.59184 7.04207 6.24764L9.07088 1.42875Z" fill="black"/>
</svg>
